<svg xmlns="http://www.w3.org/2000/svg" viewBox="0 0 720 820" role="img" aria-label="Agathe teaching with sheet music">
  <rect width="720" height="820" fill="#fffaf0"/>
  <rect x="80" y="88" width="560" height="650" rx="26" fill="#ffffff" stroke="#17130d" stroke-width="8"/>
  <circle cx="360" cy="230" r="92" fill="#e7b89c" stroke="#17130d" stroke-width="7"/>
  <path d="M260 208 C286 110 448 118 466 222 C402 174 338 172 260 208Z" fill="#17130d"/>
  <path d="M238 384 C252 318 306 290 360 290 C424 290 480 326 493 384 L536 620 L184 620 Z" fill="#6f8b63" stroke="#17130d" stroke-width="7"/>
  <rect x="170" y="604" width="380" height="86" rx="12" fill="#f6c944" stroke="#17130d" stroke-width="6"/>
  <g stroke="#17130d" stroke-width="4">
    <path d="M210 632 H510"/>
    <path d="M210 652 H510"/>
    <path d="M210 672 H510"/>
  </g>
  <path d="M124 122 C178 70 248 78 284 138" fill="none" stroke="#6f8b63" stroke-width="8" stroke-linecap="round"/>
  <path d="M456 704 C510 646 596 656 622 728" fill="none" stroke="#6f8b63" stroke-width="8" stroke-linecap="round"/>
</svg>
