<svg width="156" height="19" viewBox="0 0 156 19" fill="none" xmlns="http://www.w3.org/2000/svg">
<path d="M151.778 14.4C150.791 14.4 149.945 14.1733 149.238 13.72C148.531 13.2667 147.991 12.6467 147.618 11.86C147.245 11.0733 147.058 10.1867 147.058 9.2C147.058 8.21333 147.245 7.32667 147.618 6.54C147.991 5.75333 148.531 5.13333 149.238 4.68C149.945 4.22667 150.791 4 151.778 4C152.525 4 153.191 4.14 153.778 4.42C154.365 4.7 154.831 5.10667 155.178 5.64C155.538 6.16 155.751 6.76667 155.818 7.46H154.118C154.025 6.86 153.771 6.37333 153.358 6C152.958 5.62667 152.465 5.44 151.878 5.44H151.698C151.058 5.44 150.511 5.61333 150.058 5.96C149.618 6.29333 149.291 6.74667 149.078 7.32C148.865 7.89333 148.758 8.52 148.758 9.2C148.758 10.2667 149.011 11.16 149.518 11.88C150.025 12.6 150.751 12.96 151.698 12.96H151.878C152.465 12.96 152.958 12.7733 153.358 12.4C153.758 12.0133 154.011 11.5267 154.118 10.94H155.818C155.698 12.0067 155.271 12.8533 154.538 13.48C153.818 14.0933 152.898 14.4 151.778 14.4Z" fill="#5C524C"/>
<path d="M144.092 4.20035H145.792V14.2004H144.092V4.20035ZM143.992 0.360352H145.892V2.40035H143.992V0.360352Z" fill="#5C524C"/>
<path d="M138.885 14.4C138.031 14.4 137.305 14.26 136.705 13.98C136.105 13.7 135.645 13.3133 135.325 12.82C135.005 12.3267 134.838 11.7667 134.825 11.14H136.525C136.591 11.74 136.831 12.1933 137.245 12.5C137.671 12.8067 138.211 12.96 138.865 12.96H139.045C139.631 12.96 140.111 12.8267 140.485 12.56C140.858 12.2933 141.045 11.94 141.045 11.5C141.045 11.14 140.925 10.8533 140.685 10.64C140.458 10.4133 140.078 10.2467 139.545 10.14L138.085 9.84C137.218 9.66667 136.525 9.35333 136.005 8.9C135.485 8.44667 135.225 7.82667 135.225 7.04C135.225 6.4 135.391 5.85333 135.725 5.4C136.071 4.94667 136.525 4.6 137.085 4.36C137.658 4.12 138.278 4 138.945 4C139.785 4 140.491 4.14667 141.065 4.44C141.651 4.72 142.091 5.10667 142.385 5.6C142.678 6.09333 142.831 6.64667 142.845 7.26H141.145C141.078 6.74 140.865 6.30667 140.505 5.96C140.158 5.61333 139.671 5.44 139.045 5.44H138.865C138.278 5.44 137.805 5.58 137.445 5.86C137.098 6.12667 136.925 6.46 136.925 6.86C136.925 7.23333 137.045 7.53333 137.285 7.76C137.525 7.97333 137.918 8.13333 138.465 8.24L140.045 8.58C140.871 8.74 141.525 9.04667 142.005 9.5C142.498 9.94 142.745 10.5733 142.745 11.4C142.745 12 142.578 12.5267 142.245 12.98C141.925 13.4333 141.471 13.7867 140.885 14.04C140.311 14.28 139.645 14.4 138.885 14.4Z" fill="#5C524C"/>
<path d="M128.797 14.4002C128.063 14.4002 127.437 14.2469 126.917 13.9402C126.41 13.6335 126.023 13.2135 125.757 12.6802C125.503 12.1335 125.377 11.5069 125.377 10.8002V4.2002H127.077V10.4002C127.077 11.2535 127.25 11.8935 127.597 12.3202C127.957 12.7469 128.497 12.9602 129.217 12.9602H129.397C129.85 12.9602 130.277 12.8269 130.677 12.5602C131.077 12.2802 131.403 11.8869 131.657 11.3802C131.91 10.8735 132.037 10.2802 132.037 9.60019V4.2002H133.737V14.2002H132.037V12.3002C131.81 12.9269 131.417 13.4335 130.857 13.8202C130.297 14.2069 129.61 14.4002 128.797 14.4002Z" fill="#5C524C"/>
<path d="M108.52 0.200195H111.54L116.18 13.2202L115.76 13.1802L120.32 0.200195H123.3V14.2002H121.5V1.0802L121.7 1.1402L117.12 14.2002H114.78L110.1 1.1402L110.32 1.1202V14.2002H108.52V0.200195Z" fill="#5C524C"/>
<path d="M102.348 14.4C101.468 14.4 100.668 14.18 99.9477 13.74C99.2277 13.3 98.661 12.6867 98.2477 11.9C97.8344 11.1133 97.6277 10.2133 97.6277 9.2C97.6277 8.18667 97.8344 7.28667 98.2477 6.5C98.661 5.71333 99.2277 5.1 99.9477 4.66C100.668 4.22 101.468 4 102.348 4C103.228 4 104.028 4.22 104.748 4.66C105.481 5.1 106.054 5.71333 106.468 6.5C106.881 7.28667 107.088 8.18667 107.088 9.2C107.088 10.2133 106.881 11.1133 106.468 11.9C106.054 12.6867 105.481 13.3 104.748 13.74C104.028 14.18 103.228 14.4 102.348 14.4ZM102.448 12.96C103.008 12.96 103.508 12.8133 103.948 12.52C104.401 12.2133 104.754 11.78 105.008 11.22C105.261 10.6467 105.388 9.97333 105.388 9.2C105.388 8.42667 105.261 7.76 105.008 7.2C104.754 6.62667 104.401 6.19333 103.948 5.9C103.508 5.59333 103.008 5.44 102.448 5.44H102.268C101.708 5.44 101.201 5.59333 100.748 5.9C100.308 6.19333 99.961 6.62667 99.7077 7.2C99.4544 7.76 99.3277 8.42667 99.3277 9.2C99.3277 9.97333 99.4544 10.6467 99.7077 11.22C99.961 11.78 100.308 12.2133 100.748 12.52C101.201 12.8133 101.708 12.96 102.268 12.96H102.448Z" fill="#5C524C"/>
<path d="M89.3696 0.200195H91.0696V8.8002L95.7696 4.2002H98.0296L93.8696 8.1802L98.2296 14.2002H96.1296L92.6496 9.3402L91.0696 10.8802V14.2002H89.3696V0.200195Z" fill="#5C524C"/>
<path d="M83.1672 4.20059H84.7672V6.42059C84.9672 5.67392 85.3339 5.10059 85.8672 4.70059C86.4139 4.30059 87.0339 4.10059 87.7272 4.10059H88.6272V5.72059H87.8272C87.2139 5.72059 86.6806 5.86059 86.2272 6.14059C85.7872 6.42059 85.4472 6.82059 85.2072 7.34059C84.9806 7.86059 84.8672 8.48059 84.8672 9.20059V14.2006H83.1672V4.20059Z" fill="#5C524C"/>
<path d="M76.3592 14.4002C75.6259 14.4002 74.9992 14.2469 74.4792 13.9402C73.9725 13.6335 73.5859 13.2135 73.3192 12.6802C73.0659 12.1335 72.9392 11.5069 72.9392 10.8002V4.2002H74.6392V10.4002C74.6392 11.2535 74.8125 11.8935 75.1592 12.3202C75.5192 12.7469 76.0592 12.9602 76.7792 12.9602H76.9592C77.4125 12.9602 77.8392 12.8269 78.2392 12.5602C78.6392 12.2802 78.9659 11.8869 79.2192 11.3802C79.4725 10.8735 79.5992 10.2802 79.5992 9.60019V4.2002H81.2992V14.2002H79.5992V12.3002C79.3725 12.9269 78.9792 13.4335 78.4192 13.8202C77.8592 14.2069 77.1725 14.4002 76.3592 14.4002Z" fill="#5C524C"/>
<path d="M65.5917 14.4C64.2717 14.4 63.1117 14.0933 62.1117 13.48C61.1251 12.8667 60.3584 12.0133 59.8117 10.92C59.2784 9.82667 59.0117 8.58667 59.0117 7.2C59.0117 5.8 59.2784 4.56 59.8117 3.48C60.3584 2.38667 61.1384 1.53333 62.1517 0.92C63.1651 0.306667 64.3584 0 65.7317 0C66.8517 0 67.8184 0.206667 68.6317 0.62C69.4584 1.02 70.0984 1.58 70.5517 2.3C71.0184 3.00667 71.2917 3.82667 71.3717 4.76H69.5717C69.4651 3.77333 69.0784 3.00667 68.4117 2.46C67.7584 1.91333 66.8984 1.64 65.8317 1.64H65.6317C64.6717 1.64 63.8317 1.86 63.1117 2.3C62.3917 2.72667 61.8251 3.36 61.4117 4.2C61.0117 5.04 60.8117 6.04 60.8117 7.2C60.8117 8.36 61.0117 9.36 61.4117 10.2C61.8251 11.04 62.3917 11.68 63.1117 12.12C63.8451 12.5467 64.6917 12.76 65.6517 12.76H65.8517C66.6251 12.76 67.3184 12.6133 67.9317 12.32C68.5451 12.0133 69.0184 11.5933 69.3517 11.06C69.6851 10.5267 69.8517 9.92 69.8517 9.24V8.76H65.7517V7.14H69.9117C70.4184 7.14 70.8051 7.27333 71.0717 7.54C71.3384 7.80667 71.4717 8.19333 71.4717 8.7V14.2H69.8517V12.54C69.6384 12.8333 69.3384 13.1267 68.9517 13.42C68.5651 13.7 68.0784 13.9333 67.4917 14.12C66.9184 14.3067 66.2851 14.4 65.5917 14.4Z" fill="#5C524C"/>
<path d="M52.8647 14.4C52.2514 14.4 51.6981 14.2733 51.2047 14.02C50.7114 13.7667 50.3181 13.4133 50.0247 12.96C49.7447 12.5067 49.6047 12 49.6047 11.44C49.6047 10.7467 49.7781 10.18 50.1247 9.74C50.4847 9.28667 50.9314 8.96 51.4647 8.76C51.9981 8.54667 52.5714 8.42 53.1847 8.38L56.0647 8.14V7.8C56.0647 7.29333 55.9781 6.86667 55.8047 6.52C55.6314 6.17333 55.3714 5.90667 55.0247 5.72C54.6914 5.53333 54.2981 5.44 53.8447 5.44H53.7047C53.1181 5.44 52.6181 5.58 52.2047 5.86C51.7914 6.14 51.5581 6.54 51.5047 7.06H49.8047C49.8581 6.15333 50.2514 5.42 50.9847 4.86C51.7314 4.28667 52.6647 4 53.7847 4C54.6247 4 55.3447 4.17333 55.9447 4.52C56.5581 4.85333 57.0114 5.31333 57.3047 5.9C57.6114 6.47333 57.7647 7.10667 57.7647 7.8V12C57.7647 13 57.7981 13.7333 57.8647 14.2H56.2647C56.1981 13.8533 56.1647 13.32 56.1647 12.6C55.9514 13.0933 55.5447 13.52 54.9447 13.88C54.3447 14.2267 53.6514 14.4 52.8647 14.4ZM53.2247 12.96C53.6514 12.96 54.0847 12.8533 54.5247 12.64C54.9647 12.4267 55.3314 12.14 55.6247 11.78C55.9181 11.4067 56.0647 11.0133 56.0647 10.6V9.48L53.4447 9.68C52.8047 9.73333 52.2847 9.90667 51.8847 10.2C51.4981 10.4933 51.3047 10.88 51.3047 11.36C51.3047 11.8133 51.4714 12.1933 51.8047 12.5C52.1381 12.8067 52.5514 12.96 53.0447 12.96H53.2247Z" fill="#5C524C"/>
<path d="M39.8618 0.200195H41.5618V5.7002C41.8952 5.16686 42.3352 4.75353 42.8818 4.4602C43.4418 4.15353 44.1085 4.0002 44.8818 4.0002C45.6285 4.0002 46.2685 4.14686 46.8018 4.4402C47.3351 4.73353 47.7351 5.14686 48.0018 5.6802C48.2818 6.21353 48.4218 6.83353 48.4218 7.5402V14.2002H46.7218V7.9402C46.7218 7.40686 46.6418 6.95353 46.4818 6.5802C46.3351 6.20686 46.1018 5.92686 45.7818 5.7402C45.4618 5.5402 45.0618 5.4402 44.5818 5.4402H44.4018C43.9085 5.4402 43.4418 5.57353 43.0018 5.8402C42.5751 6.09353 42.2285 6.46686 41.9618 6.9602C41.6951 7.4402 41.5618 8.00686 41.5618 8.6602V14.2002H39.8618V0.200195Z" fill="#5C524C"/>
<path d="M36.6818 14.2C36.0018 14.2 35.4818 14.0266 35.1218 13.68C34.7618 13.32 34.5818 12.8066 34.5818 12.14V5.65996H32.3418V4.19996H34.5818V0.959961H36.2818V4.19996H38.7218V5.65996H36.2818V11.9C36.2818 12.1933 36.3418 12.4 36.4618 12.52C36.5818 12.64 36.7885 12.7 37.0818 12.7H39.0218V14.2H36.6818Z" fill="#5C524C"/>
<path d="M27.0117 14.4C26.3984 14.4 25.845 14.2733 25.3517 14.02C24.8584 13.7667 24.465 13.4133 24.1717 12.96C23.8917 12.5067 23.7517 12 23.7517 11.44C23.7517 10.7467 23.925 10.18 24.2717 9.74C24.6317 9.28667 25.0784 8.96 25.6117 8.76C26.145 8.54667 26.7184 8.42 27.3317 8.38L30.2117 8.14V7.8C30.2117 7.29333 30.125 6.86667 29.9517 6.52C29.7784 6.17333 29.5184 5.90667 29.1717 5.72C28.8384 5.53333 28.445 5.44 27.9917 5.44H27.8517C27.265 5.44 26.765 5.58 26.3517 5.86C25.9384 6.14 25.705 6.54 25.6517 7.06H23.9517C24.005 6.15333 24.3984 5.42 25.1317 4.86C25.8784 4.28667 26.8117 4 27.9317 4C28.7717 4 29.4917 4.17333 30.0917 4.52C30.705 4.85333 31.1584 5.31333 31.4517 5.9C31.7584 6.47333 31.9117 7.10667 31.9117 7.8V12C31.9117 13 31.945 13.7333 32.0117 14.2H30.4117C30.345 13.8533 30.3117 13.32 30.3117 12.6C30.0984 13.0933 29.6917 13.52 29.0917 13.88C28.4917 14.2267 27.7984 14.4 27.0117 14.4ZM27.3717 12.96C27.7984 12.96 28.2317 12.8533 28.6717 12.64C29.1117 12.4267 29.4784 12.14 29.7717 11.78C30.065 11.4067 30.2117 11.0133 30.2117 10.6V9.48L27.5917 9.68C26.9517 9.73333 26.4317 9.90667 26.0317 10.2C25.645 10.4933 25.4517 10.88 25.4517 11.36C25.4517 11.8133 25.6184 12.1933 25.9517 12.5C26.285 12.8067 26.6984 12.96 27.1917 12.96H27.3717Z" fill="#5C524C"/>
<path d="M17.672 18.6C16.7654 18.6 15.972 18.4667 15.292 18.2C14.6254 17.9467 14.1054 17.5867 13.732 17.12C13.3587 16.6667 13.1387 16.14 13.072 15.54H14.772C14.8787 16.06 15.1787 16.46 15.672 16.74C16.1787 17.02 16.812 17.16 17.572 17.16H17.772C18.6787 17.16 19.4054 16.9 19.952 16.38C20.512 15.86 20.792 15.0667 20.792 14V12.54C20.4987 13.0333 20.0854 13.4333 19.552 13.74C19.0187 14.0467 18.392 14.2 17.672 14.2C16.8587 14.2 16.1187 14.0133 15.452 13.64C14.7854 13.2533 14.252 12.68 13.852 11.92C13.4654 11.16 13.272 10.2333 13.272 9.14C13.272 8.04667 13.4654 7.11333 13.852 6.34C14.252 5.56667 14.7854 4.98667 15.452 4.6C16.1187 4.2 16.8587 4 17.672 4C18.4054 4 19.0454 4.16 19.592 4.48C20.1387 4.78667 20.5387 5.18 20.792 5.66V4.2H22.492V14.18C22.492 15.02 22.2987 15.7733 21.912 16.44C21.5387 17.12 20.9854 17.6467 20.252 18.02C19.532 18.4067 18.672 18.6 17.672 18.6ZM17.912 12.76C18.432 12.76 18.912 12.6133 19.352 12.32C19.792 12.0267 20.1387 11.6067 20.392 11.06C20.6587 10.5133 20.792 9.87333 20.792 9.14C20.792 8.39333 20.6654 7.74 20.412 7.18C20.1587 6.62 19.8187 6.19333 19.392 5.9C18.9654 5.59333 18.4987 5.44 17.992 5.44H17.812C17.2787 5.44 16.7987 5.58 16.372 5.86C15.9454 6.12667 15.6054 6.54 15.352 7.1C15.0987 7.64667 14.972 8.32667 14.972 9.14C14.972 10.34 15.2254 11.2467 15.732 11.86C16.252 12.46 16.9254 12.76 17.752 12.76H17.912Z" fill="#5C524C"/>
<path d="M5.62 0.200195H7.9L13.48 14.2002H11.6L6.5 1.3202H6.92L1.84 14.2002H0L5.62 0.200195ZM2.94 8.8802H10.52V10.5202H2.94V8.8802Z" fill="#5C524C"/>
</svg>
