<svg xmlns="http://www.w3.org/2000/svg" viewBox="0 0 720 300" role="img" aria-label="Botanical music detail">
  <rect width="720" height="300" fill="#edf3df"/>
  <path d="M92 262 C130 184 190 130 286 94 C398 52 520 72 636 134" fill="none" stroke="#17130d" stroke-width="7" stroke-linecap="round"/>
  <g fill="#6f8b63" stroke="#17130d" stroke-width="4">
    <ellipse cx="184" cy="155" rx="48" ry="22" transform="rotate(-30 184 155)"/>
    <ellipse cx="292" cy="93" rx="48" ry="22" transform="rotate(-18 292 93)"/>
    <ellipse cx="430" cy="86" rx="48" ry="22" transform="rotate(12 430 86)"/>
    <ellipse cx="552" cy="116" rx="48" ry="22" transform="rotate(25 552 116)"/>
  </g>
  <rect x="170" y="190" width="390" height="34" rx="17" fill="#f6c944" stroke="#17130d" stroke-width="5"/>
  <circle cx="225" cy="207" r="8" fill="#fffdf5" stroke="#17130d" stroke-width="3"/>
  <circle cx="310" cy="207" r="8" fill="#fffdf5" stroke="#17130d" stroke-width="3"/>
  <circle cx="395" cy="207" r="8" fill="#fffdf5" stroke="#17130d" stroke-width="3"/>
  <circle cx="480" cy="207" r="8" fill="#fffdf5" stroke="#17130d" stroke-width="3"/>
</svg>
