<svg width="76" height="26" viewBox="0 0 76 26" fill="none" xmlns="http://www.w3.org/2000/svg">
<path d="M50.1279 0.349609H55.4129L63.5329 23.1346L62.7979 23.0646L70.7779 0.349609H75.9929V24.8496H72.8429V1.88961L73.1929 1.99461L65.1779 24.8496H61.0829L52.8929 1.99461L53.2779 1.95961V24.8496H50.1279V0.349609Z" fill="#5B514B"/>
<path d="M35.5196 25.2C33.2096 25.2 31.1796 24.6633 29.4296 23.59C27.703 22.5167 26.3613 21.0233 25.4046 19.11C24.4713 17.1967 24.0046 15.0267 24.0046 12.6C24.0046 10.15 24.4713 7.98 25.4046 6.09C26.3613 4.17667 27.7263 2.68333 29.4996 1.61C31.273 0.536667 33.3613 0 35.7646 0C37.7246 0 39.4163 0.361667 40.8396 1.085C42.2863 1.785 43.4063 2.765 44.1996 4.025C45.0163 5.26167 45.4946 6.69667 45.6346 8.33H42.4846C42.298 6.60333 41.6213 5.26167 40.4546 4.305C39.3113 3.34833 37.8063 2.87 35.9396 2.87H35.5896C33.9096 2.87 32.4396 3.255 31.1796 4.025C29.9196 4.77167 28.928 5.88 28.2046 7.35C27.5046 8.82 27.1546 10.57 27.1546 12.6C27.1546 14.63 27.5046 16.38 28.2046 17.85C28.928 19.32 29.9196 20.44 31.1796 21.21C32.463 21.9567 33.9446 22.33 35.6246 22.33H35.9746C37.328 22.33 38.5413 22.0733 39.6146 21.56C40.688 21.0233 41.5163 20.2883 42.0996 19.355C42.683 18.4217 42.9746 17.36 42.9746 16.17V15.33H35.7996V12.495H43.0796C43.9663 12.495 44.643 12.7283 45.1096 13.195C45.5763 13.6617 45.8096 14.3383 45.8096 15.225V24.85H42.9746V21.945C42.6013 22.4583 42.0763 22.9717 41.3996 23.485C40.723 23.975 39.8713 24.3833 38.8446 24.71C37.8413 25.0367 36.733 25.2 35.5196 25.2Z" fill="#5B514B"/>
<path d="M9.835 0.349609H13.825L23.59 24.8496H20.3L11.375 2.30961H12.11L3.22 24.8496H0L9.835 0.349609ZM5.145 15.5396H18.41V18.4096H5.145V15.5396Z" fill="#5B514B"/>
</svg>
