<svg xmlns="http://www.w3.org/2000/svg" viewBox="0 0 960 540" role="img" aria-label="Open lesson video preview">
  <rect width="960" height="540" fill="#fffdf5"/>
  <rect x="70" y="58" width="820" height="424" rx="28" fill="#ffffff" stroke="#17130d" stroke-width="8"/>
  <rect x="104" y="98" width="360" height="300" rx="18" fill="#edf3df" stroke="#17130d" stroke-width="6"/>
  <circle cx="284" cy="200" r="58" fill="#e7b89c" stroke="#17130d" stroke-width="6"/>
  <path d="M224 184 C246 116 350 124 356 196 C316 160 272 158 224 184Z" fill="#17130d"/>
  <path d="M202 320 C216 264 254 244 286 244 C326 244 364 268 374 320 L390 398 L186 398 Z" fill="#6f8b63" stroke="#17130d" stroke-width="6"/>
  <g stroke="#17130d" stroke-width="5">
    <path d="M540 158 H808"/>
    <path d="M540 208 H808"/>
    <path d="M540 258 H808"/>
    <path d="M540 308 H742"/>
  </g>
  <circle cx="480" cy="270" r="66" fill="#f6c944" stroke="#17130d" stroke-width="7"/>
  <path d="M462 232 L462 308 L526 270 Z" fill="#17130d"/>
</svg>
